<svg width="64" height="56" viewBox="0 0 64 56" fill="none" xmlns="http://www.w3.org/2000/svg">
<path d="M63.2262 19.2756L57.342 14.2556C56.8672 13.8561 56.2343 13.6228 55.5678 13.6017C54.9014 13.5807 54.2499 13.7734 53.7419 14.1419C52.9574 14.7115 51.9508 15.0089 50.9215 14.9752C49.8921 14.9415 48.9152 14.5791 48.1843 13.9599C47.4588 13.3364 47.0343 12.5032 46.9948 11.6253C46.9553 10.7474 47.3037 9.88888 47.971 9.21975C48.4029 8.78629 48.6288 8.2305 48.6041 7.66196C48.5794 7.09343 48.306 6.55341 47.8376 6.1484L41.9481 1.12276C41.4503 0.698958 40.7759 0.460937 40.0726 0.460938C39.3694 0.460937 38.695 0.698958 38.1972 1.12276L28.8169 9.1242C28.2377 9.62004 27.801 10.2235 27.5408 10.8874C27.4902 11.015 27.4057 11.131 27.294 11.2263C27.1823 11.3215 27.0464 11.3936 26.8968 11.4368C26.1183 11.6588 25.4109 12.0318 24.83 12.5266L0.775767 33.0477C0.279 33.4724 0 34.0478 0 34.6477C0 35.2476 0.279 35.823 0.775767 36.2476L6.66667 41.2676C7.14141 41.6671 7.7744 41.9005 8.44082 41.9215C9.10724 41.9426 9.75872 41.7498 10.2668 41.3813C11.0494 40.8071 12.0573 40.5064 13.0888 40.5395C14.1203 40.5725 15.099 40.9369 15.8289 41.5595C16.5587 42.1822 16.9858 43.0172 17.0245 43.8971C17.0633 44.7771 16.7108 45.637 16.0377 46.3046C15.6058 46.7381 15.3799 47.2939 15.4045 47.8624C15.4292 48.4309 15.7027 48.9709 16.171 49.376L22.0553 54.3959C22.553 54.8197 23.2275 55.0577 23.9307 55.0577C24.6339 55.0577 25.3084 54.8197 25.8061 54.3959L49.8604 33.8747C50.44 33.3795 50.8772 32.7763 51.1377 32.1127C51.1882 31.9846 51.2727 31.8683 51.3847 31.7728C51.4966 31.6773 51.633 31.6052 51.7831 31.5621C52.5608 31.3401 53.2678 30.9675 53.8485 30.4735L63.2276 22.4709C63.7225 22.0463 64.0003 21.4718 64 20.873C63.9998 20.2742 63.7215 19.6999 63.2262 19.2756ZM32.7757 15.9028C32.5776 16.0718 32.3424 16.2059 32.0835 16.2974C31.8246 16.3889 31.5472 16.436 31.267 16.436C30.9868 16.436 30.7093 16.3889 30.4504 16.2974C30.1916 16.2059 29.9564 16.0718 29.7582 15.9028L28.2235 14.5935C27.8332 14.2504 27.6167 13.7901 27.6209 13.312C27.6251 12.8339 27.8497 12.3765 28.2461 12.0385C28.6424 11.7005 29.1788 11.5091 29.7392 11.5057C30.2996 11.5023 30.839 11.6872 31.241 12.0204L32.7757 13.3285C32.9739 13.4975 33.131 13.6982 33.2383 13.9191C33.3455 14.1399 33.4007 14.3766 33.4007 14.6157C33.4007 14.8547 33.3455 15.0914 33.2383 15.3123C33.131 15.5331 32.9739 15.7338 32.7757 15.9028ZM38.6426 20.9079C38.2425 21.249 37.7001 21.4406 37.1345 21.4406C36.569 21.4406 36.0265 21.249 35.6265 20.9079L34.1597 19.6567C33.9616 19.4876 33.8045 19.287 33.6972 19.0661C33.59 18.8453 33.5348 18.6086 33.5348 18.3695C33.5348 18.1305 33.59 17.8938 33.6972 17.6729C33.8045 17.4521 33.9616 17.2514 34.1597 17.0824C34.5599 16.741 35.1026 16.5493 35.6685 16.5493C35.9487 16.5493 36.2261 16.5963 36.485 16.6878C36.7439 16.7793 36.9791 16.9134 37.1772 17.0824L38.6439 18.3337C38.8428 18.5027 39.0006 18.7035 39.1083 18.9246C39.216 19.1458 39.2715 19.3828 39.2716 19.6223C39.2718 19.8617 39.2165 20.0989 39.109 20.3201C39.0015 20.5413 38.8439 20.7422 38.6453 20.9114L38.6426 20.9079ZM44.5095 25.9131C44.3114 26.0822 44.0762 26.2163 43.8173 26.3078C43.5584 26.3993 43.281 26.4463 43.0008 26.4463C42.7206 26.4463 42.4431 26.3993 42.1842 26.3078C41.9254 26.2163 41.6901 26.0822 41.492 25.9131L40.0253 24.6618C39.635 24.3188 39.4185 23.8585 39.4227 23.3804C39.4269 22.9023 39.6515 22.4448 40.0479 22.1068C40.4442 21.7688 40.9806 21.5775 41.541 21.5741C42.1014 21.5707 42.6408 21.7555 43.0428 22.0887L44.5095 23.34C44.7089 23.5087 44.8673 23.7094 44.9756 23.9304C45.0838 24.1515 45.1399 24.3886 45.1405 24.6282C45.1412 24.8678 45.0863 25.1051 44.9792 25.3266C44.872 25.5481 44.7147 25.7493 44.5162 25.9188L44.5095 25.9131ZM50.4337 30.9797C50.2356 31.1488 50.0004 31.2829 49.7415 31.3743C49.4827 31.4658 49.2052 31.5129 48.925 31.5129C48.6448 31.5129 48.3673 31.4658 48.1085 31.3743C47.8496 31.2829 47.6144 31.1488 47.4163 30.9797L45.8909 29.6715C45.6886 29.503 45.5275 29.3019 45.4171 29.0798C45.3067 28.8577 45.2492 28.6191 45.2479 28.3779C45.2465 28.1367 45.3014 27.8977 45.4093 27.6747C45.5172 27.4517 45.6759 27.2493 45.8764 27.0791C46.0768 26.909 46.3149 26.7745 46.5767 26.6835C46.8386 26.5926 47.1191 26.5469 47.4018 26.5493C47.6845 26.5516 47.9639 26.6018 48.2237 26.6971C48.4835 26.7923 48.7185 26.9307 48.915 27.1041L50.4417 28.4111C50.6398 28.5802 50.7969 28.781 50.904 29.0018C51.0111 29.2227 51.0662 29.4595 51.0661 29.6985C51.066 29.9376 51.0106 30.1742 50.9033 30.395C50.7959 30.6159 50.6386 30.8165 50.4404 30.9854L50.4337 30.9797Z" fill="white"/>
</svg>
